<svg width="87" height="87" viewBox="0 0 87 87" fill="none" xmlns="http://www.w3.org/2000/svg">
<path d="M37.9641 21.908C39.4166 16.1599 47.5834 16.1599 49.0359 21.908C49.9077 25.3581 53.6888 27.179 56.9297 25.7095C62.3294 23.2612 67.4213 29.6463 63.8329 34.3658C61.6791 37.1985 62.6129 41.2899 65.7825 42.9076C71.0633 45.6027 69.246 53.5648 63.3188 53.7018C59.7612 53.784 57.1446 57.0651 57.8561 60.5518C59.0415 66.3608 51.6834 69.9043 47.8807 65.3557C45.5983 62.6255 41.4017 62.6255 39.1193 65.3557C35.3166 69.9043 27.9585 66.3608 29.1439 60.5518C29.8554 57.0651 27.2388 53.784 23.6812 53.7018C17.754 53.5648 15.9367 45.6027 21.2175 42.9076C24.3871 41.2899 25.321 37.1985 23.1671 34.3658C19.5787 29.6463 24.6706 23.2612 30.0703 25.7095C33.3112 27.179 37.0923 25.3581 37.9641 21.908Z" fill="#601FE9"/>
<circle cx="43" cy="69" r="3" fill="#601FE9"/>
<path fill-rule="evenodd" clip-rule="evenodd" d="M40.4771 36.2475C40.4771 35.6371 40.9721 35.1421 41.5825 35.1421C42.0124 35.1421 42.4108 35.2181 42.7224 35.5445C42.8145 35.6408 42.9251 35.7175 43.0477 35.7699C43.1702 35.8223 43.3021 35.8493 43.4354 35.8493C43.5686 35.8493 43.7005 35.8223 43.8231 35.7699C43.9456 35.7175 44.0563 35.6408 44.1483 35.5445C44.4599 35.2181 44.8583 35.1421 45.2883 35.1421C45.507 35.142 45.7208 35.2068 45.9027 35.3282C46.0846 35.4497 46.2264 35.6224 46.3101 35.8244C46.3939 36.0265 46.4158 36.2489 46.3731 36.4634C46.3303 36.6779 46.225 36.8749 46.0702 37.0295L43.4354 39.6644L40.8005 37.0295C40.6978 36.9268 40.6164 36.8049 40.5609 36.6707C40.5054 36.5366 40.4769 36.3927 40.4771 36.2475ZM41.5825 33.1699C40.9738 33.1699 40.3787 33.3503 39.8725 33.6885C39.3664 34.0267 38.9719 34.5074 38.7389 35.0698C38.506 35.6321 38.445 36.251 38.5638 36.848C38.6826 37.445 38.9757 37.9934 39.4062 38.4239L42.7382 41.7569C42.9231 41.9417 43.1739 42.0456 43.4354 42.0456C43.6968 42.0456 43.9476 41.9417 44.1325 41.7569L47.4646 38.4239C47.8946 37.9933 48.1873 37.4449 48.3058 36.848C48.4243 36.2512 48.3632 35.6326 48.1304 35.0704C47.8975 34.5082 47.5032 34.0276 46.9974 33.6893C46.4915 33.3511 45.8968 33.1703 45.2883 33.1699C44.6335 33.1699 44.0083 33.2814 43.4354 33.6176C42.8634 33.2823 42.2373 33.1699 41.5825 33.1699ZM50.2188 40.0726C50.8291 40.0726 51.3242 40.5676 51.3242 41.178C51.3242 41.608 51.2482 42.0064 50.9218 42.318C50.8255 42.41 50.7488 42.5207 50.6964 42.6432C50.644 42.7658 50.617 42.8977 50.617 43.0309C50.617 43.1642 50.644 43.2961 50.6964 43.4186C50.7488 43.5412 50.8255 43.6518 50.9218 43.7439C51.2482 44.0555 51.3242 44.4539 51.3242 44.8838C51.3243 45.1025 51.2595 45.3164 51.1381 45.4983C51.0166 45.6802 50.8439 45.822 50.6419 45.9057C50.4398 45.9894 50.2174 46.0113 50.0029 45.9686C49.7884 45.9259 49.5914 45.8205 49.4368 45.6658L46.8019 43.0309L49.4368 40.3961C49.6439 40.189 49.9249 40.0726 50.2188 40.0726ZM53.2964 41.178C53.2964 40.5693 53.1159 39.9742 52.7778 39.4681C52.4396 38.9619 51.9589 38.5674 51.3965 38.3345C50.8341 38.1015 50.2153 38.0406 49.6183 38.1593C49.0212 38.2781 48.4728 38.5713 48.0424 39.0017L44.7094 42.3337C44.5245 42.5187 44.4207 42.7694 44.4207 43.0309C44.4207 43.2924 44.5245 43.5432 44.7094 43.7281L48.0424 47.0601C48.4728 47.4906 49.0212 47.7837 49.6183 47.9025C50.2153 48.0213 50.8341 47.9603 51.3965 47.7274C51.9589 47.4944 52.4396 47.0999 52.7778 46.5938C53.1159 46.0876 53.2964 45.4925 53.2964 44.8838C53.2964 44.229 53.1849 43.6038 52.8487 43.0309C53.184 42.459 53.2964 41.8328 53.2964 41.178ZM45.2883 50.9197C45.507 50.9199 45.7208 50.8551 45.9027 50.7336C46.0846 50.6122 46.2264 50.4395 46.3101 50.2374C46.3939 50.0353 46.4158 49.813 46.3731 49.5985C46.3303 49.3839 46.225 49.1869 46.0702 49.0323L43.4354 46.3975L40.8005 49.0323C40.6458 49.1869 40.5404 49.3839 40.4977 49.5985C40.455 49.813 40.4769 50.0353 40.5606 50.2374C40.6443 50.4395 40.7861 50.6122 40.968 50.7336C41.1499 50.8551 41.3638 50.9199 41.5825 50.9197C42.0124 50.9197 42.4108 50.8438 42.7224 50.5174C42.8145 50.421 42.9251 50.3443 43.0477 50.2919C43.1702 50.2396 43.3021 50.2125 43.4354 50.2125C43.5686 50.2125 43.7005 50.2396 43.8231 50.2919C43.9456 50.3443 44.0563 50.421 44.1483 50.5174C44.4599 50.8438 44.8583 50.9197 45.2883 50.9197ZM48.3659 49.8143C48.366 50.2185 48.2865 50.6188 48.1319 50.9922C47.9772 51.3657 47.7506 51.705 47.4647 51.9908C47.1789 52.2766 46.8396 52.5033 46.4662 52.6579C46.0927 52.8125 45.6924 52.8921 45.2883 52.8919C44.6335 52.8919 44.0083 52.7805 43.4354 52.4442C42.8634 52.7795 42.2373 52.8919 41.5825 52.8919C40.9738 52.892 40.3787 52.7115 39.8725 52.3733C39.3664 52.0352 38.9719 51.5545 38.7389 50.9921C38.506 50.4297 38.445 49.8109 38.5638 49.2138C38.6826 48.6168 38.9757 48.0684 39.4062 47.638L42.7382 44.305C42.9231 44.1201 43.1739 44.0162 43.4354 44.0162C43.6968 44.0162 43.9476 44.1201 44.1325 44.305L47.4646 47.638C48.0414 48.2148 48.3659 48.9978 48.3659 49.8143ZM36.652 45.9892C36.5068 45.9894 36.363 45.9608 36.2288 45.9053C36.0946 45.8498 35.9727 45.7684 35.8701 45.6657C35.7674 45.5631 35.686 45.4412 35.6305 45.307C35.5749 45.1728 35.5464 45.029 35.5466 44.8838C35.5466 44.4539 35.6225 44.0555 35.9489 43.7439C36.0453 43.6518 36.1219 43.5412 36.1743 43.4186C36.2267 43.2961 36.2538 43.1642 36.2538 43.0309C36.2538 42.8977 36.2267 42.7658 36.1743 42.6432C36.1219 42.5207 36.0453 42.41 35.9489 42.318C35.6225 42.0064 35.5466 41.608 35.5466 41.178C35.5464 40.9593 35.6112 40.7455 35.7327 40.5636C35.8541 40.3817 36.0268 40.2399 36.2289 40.1561C36.4309 40.0724 36.6533 40.0505 36.8678 40.0932C37.0823 40.1359 37.2794 40.2413 37.434 40.3961L40.0688 43.0309L37.434 45.6658C37.3313 45.7685 37.2094 45.8499 37.0752 45.9054C36.941 45.9609 36.7972 45.9894 36.652 45.9892ZM33.5744 44.8838C33.5743 45.4925 33.7548 46.0876 34.093 46.5938C34.4311 47.0999 34.9118 47.4944 35.4742 47.7274C36.0366 47.9603 36.6554 48.0213 37.2525 47.9025C37.8495 47.7837 38.3979 47.4906 38.8283 47.0601L42.1613 43.7281C42.3462 43.5432 42.45 43.2924 42.45 43.0309C42.45 42.7694 42.3462 42.5187 42.1613 42.3337L38.8283 39.0017C38.3979 38.5713 37.8495 38.2781 37.2525 38.1593C36.6554 38.0406 36.0366 38.1015 35.4742 38.3345C34.9118 38.5674 34.4311 38.9619 34.093 39.4681C33.7548 39.9742 33.5743 40.5693 33.5744 41.178C33.5744 41.8328 33.6858 42.458 34.0221 43.0309C33.6868 43.6029 33.5744 44.229 33.5744 44.8838Z" fill="#9747FF"/>
<path fill-rule="evenodd" clip-rule="evenodd" d="M44 56.6769C51.5536 56.6769 57.6769 50.5536 57.6769 43C57.6769 35.4464 51.5536 29.3231 44 29.3231C36.4464 29.3231 30.3231 35.4464 30.3231 43C30.3231 50.5536 36.4464 56.6769 44 56.6769ZM44 57C51.732 57 58 50.732 58 43C58 35.268 51.732 29 44 29C36.268 29 30 35.268 30 43C30 50.732 36.268 57 44 57Z" fill="white"/>
<path fill-rule="evenodd" clip-rule="evenodd" d="M43.44 56.6731C50.6824 56.6731 56.5535 50.802 56.5535 43.5596C56.5535 36.3172 50.6824 30.4461 43.44 30.4461C36.1976 30.4461 30.3265 36.3172 30.3265 43.5596C30.3265 50.802 36.1976 56.6731 43.44 56.6731ZM43.44 56.9996C50.8627 56.9996 56.88 50.9823 56.88 43.5596C56.88 36.1369 50.8627 30.1196 43.44 30.1196C36.0173 30.1196 30 36.1369 30 43.5596C30 50.9823 36.0173 56.9996 43.44 56.9996Z" fill="white"/>
<path fill-rule="evenodd" clip-rule="evenodd" d="M44 55.0003C51.2424 55.0003 57.1135 49.2515 57.1135 42.16C57.1135 35.0685 51.2424 29.3197 44 29.3197C36.7576 29.3197 30.8865 35.0685 30.8865 42.16C30.8865 49.2515 36.7576 55.0003 44 55.0003ZM44 55.32C51.4227 55.32 57.44 49.4281 57.44 42.16C57.44 34.8919 51.4227 29 44 29C36.5773 29 30.56 34.8919 30.56 42.16C30.56 49.4281 36.5773 55.32 44 55.32Z" fill="white"/>
<path d="M40.1025 36.8398C41.0319 36.8398 41.8946 36.9167 42.6906 37.0703C43.4911 37.2195 44.225 37.4126 44.8921 37.6496V39.8618C44.6299 39.7213 44.3331 39.5852 44.0018 39.4536C43.6752 39.3219 43.3186 39.2056 42.9321 39.1046C42.5456 39.0037 42.1316 38.9225 41.6899 38.861C41.2482 38.7996 40.7835 38.7689 40.2958 38.7689C39.6885 38.7689 39.1593 38.8106 38.7085 38.894C38.2576 38.9773 37.8711 39.0893 37.549 39.2297C37.227 39.3702 36.9624 39.5348 36.7554 39.7235C36.5483 39.9078 36.385 40.1053 36.2654 40.316C36.1457 40.5267 36.0629 40.7418 36.0169 40.9612C35.9709 41.1807 35.9479 41.3936 35.9479 41.5998C35.9479 41.7798 35.9663 41.9751 36.0031 42.1858C36.0445 42.3965 36.1181 42.6071 36.2239 42.8178C36.3344 43.0285 36.4862 43.2304 36.6794 43.4235C36.8727 43.6166 37.1234 43.7878 37.4317 43.937C37.7446 44.0863 38.1195 44.207 38.5566 44.2992C38.9937 44.3869 39.5136 44.4308 40.1163 44.4308C40.42 44.4308 40.6846 44.422 40.91 44.4045C41.1355 44.3869 41.3402 44.3628 41.5242 44.3321C41.7129 44.3013 41.8877 44.264 42.0487 44.2201C42.2144 44.1763 42.3846 44.1302 42.5594 44.0819V42.989H39.6885V41.0073H45.1199V45.6291C44.7794 45.7388 44.3975 45.8397 43.9742 45.9319C43.5555 46.0197 43.1208 46.0943 42.6699 46.1557C42.2236 46.2216 41.775 46.2721 41.3241 46.3072C40.8732 46.3423 40.4476 46.3598 40.0473 46.3598C39.4262 46.3598 38.8304 46.3203 38.2599 46.2413C37.6893 46.1623 37.1556 46.0416 36.6587 45.8792C36.1664 45.7124 35.7155 45.5018 35.3061 45.2472C34.9012 44.9926 34.5538 44.6898 34.2639 44.3387C33.9787 43.9875 33.7555 43.5859 33.5945 43.1338C33.4381 42.6774 33.3599 42.166 33.3599 41.5998C33.3599 41.038 33.4427 40.5289 33.6083 40.0724C33.7739 39.616 34.004 39.2122 34.2985 38.861C34.5975 38.5099 34.9541 38.2071 35.3682 37.9525C35.7869 37.6979 36.2447 37.4894 36.7416 37.327C37.2431 37.1602 37.7768 37.0374 38.3427 36.9583C38.9132 36.8793 39.4998 36.8398 40.1025 36.8398Z" fill="white"/>
<path d="M47.8057 50.3401C46.8996 50.3663 46.0564 50.3121 45.2759 50.1775C44.4911 50.0475 43.7699 49.8708 43.1126 49.6474L43.0473 47.3868C43.3071 47.5229 43.6005 47.6536 43.9273 47.7789C44.2496 47.9042 44.6007 48.0131 44.9804 48.1053C45.3602 48.1976 45.7662 48.269 46.1986 48.3193C46.631 48.3697 47.085 48.388 47.5604 48.3743C48.1525 48.3572 48.667 48.2997 49.1041 48.2018C49.5412 48.1039 49.9147 47.9786 50.2245 47.826C50.5344 47.6734 50.7874 47.4978 50.9837 47.2991C51.1801 47.1049 51.3335 46.8984 51.4439 46.6798C51.5543 46.4611 51.6287 46.239 51.6671 46.0135C51.7054 45.7879 51.7216 45.5697 51.7155 45.3589C51.7102 45.175 51.6865 44.9759 51.6444 44.7617C51.5978 44.5475 51.5198 44.3343 51.4105 44.122C51.2966 43.9098 51.1426 43.7078 50.9485 43.5158C50.7545 43.3239 50.505 43.1561 50.2 43.0122C49.8906 42.8685 49.5215 42.7557 49.0927 42.6738C48.664 42.5964 48.1559 42.5662 47.5683 42.5832C47.2723 42.5917 47.0146 42.6081 46.7954 42.6324C46.5761 42.6567 46.3772 42.6871 46.1987 42.7237C46.0157 42.7604 45.8464 42.8035 45.6907 42.8529C45.5305 42.9024 45.3659 42.9543 45.1969 43.0085L45.2291 44.1254L48.028 44.0446L48.0864 46.0697L42.7915 46.2225L42.6552 41.4995C42.9838 41.3778 43.3532 41.2639 43.7631 41.1578C44.1687 41.0563 44.5903 40.9678 45.0281 40.8923C45.4612 40.8125 45.897 40.7483 46.3356 40.6997C46.7741 40.6511 47.1884 40.6212 47.5787 40.6099C48.1842 40.5925 48.7662 40.6161 49.3247 40.6807C49.8832 40.7454 50.4071 40.8538 50.8963 41.0057C51.3811 41.1623 51.8269 41.3649 52.2336 41.6135C52.6358 41.8623 52.9834 42.162 53.2763 42.5127C53.5648 42.8635 53.7942 43.2676 53.9645 43.7251C54.1305 44.1871 54.2218 44.7075 54.2385 45.2861C54.2551 45.8602 54.1893 46.3828 54.0413 46.854C53.8933 47.3251 53.681 47.7442 53.4043 48.1113C53.1231 48.4786 52.7844 48.7981 52.3882 49.0699C51.9876 49.3418 51.5475 49.5677 51.0678 49.7477C50.5839 49.9322 50.0672 50.0728 49.5178 50.1695C48.964 50.2663 48.3933 50.3232 47.8057 50.3401Z" fill="white"/>
</svg>
